<svg id="visual" viewBox="0 0 960 540" width="960" height="540" xmlns="http://www.w3.org/2000/svg" xmlns:xlink="http://www.w3.org/1999/xlink" version="1.1"><rect x="0" y="0" width="960" height="540" fill="#000000"></rect><defs><linearGradient id="grad1_0" x1="43.8%" y1="100%" x2="100%" y2="0%"><stop offset="14.444444444444446%" stop-color="#3b4076" stop-opacity="1"></stop><stop offset="85.55555555555554%" stop-color="#3b4076" stop-opacity="1"></stop></linearGradient></defs><defs><linearGradient id="grad1_1" x1="43.8%" y1="100%" x2="100%" y2="0%"><stop offset="14.444444444444446%" stop-color="#3b4076" stop-opacity="1"></stop><stop offset="85.55555555555554%" stop-color="#30376b" stop-opacity="1"></stop></linearGradient></defs><defs><linearGradient id="grad1_2" x1="43.8%" y1="100%" x2="100%" y2="0%"><stop offset="14.444444444444446%" stop-color="#262e61" stop-opacity="1"></stop><stop offset="85.55555555555554%" stop-color="#30376b" stop-opacity="1"></stop></linearGradient></defs><defs><linearGradient id="grad1_3" x1="43.8%" y1="100%" x2="100%" y2="0%"><stop offset="14.444444444444446%" stop-color="#262e61" stop-opacity="1"></stop><stop offset="85.55555555555554%" stop-color="#1b2557" stop-opacity="1"></stop></linearGradient></defs><defs><linearGradient id="grad1_4" x1="43.8%" y1="100%" x2="100%" y2="0%"><stop offset="14.444444444444446%" stop-color="#0e1d4d" stop-opacity="1"></stop><stop offset="85.55555555555554%" stop-color="#1b2557" stop-opacity="1"></stop></linearGradient></defs><defs><linearGradient id="grad1_5" x1="43.8%" y1="100%" x2="100%" y2="0%"><stop offset="14.444444444444446%" stop-color="#0e1d4d" stop-opacity="1"></stop><stop offset="85.55555555555554%" stop-color="#001443" stop-opacity="1"></stop></linearGradient></defs><defs><linearGradient id="grad1_6" x1="43.8%" y1="100%" x2="100%" y2="0%"><stop offset="14.444444444444446%" stop-color="#00093a" stop-opacity="1"></stop><stop offset="85.55555555555554%" stop-color="#001443" stop-opacity="1"></stop></linearGradient></defs><defs><linearGradient id="grad1_7" x1="43.8%" y1="100%" x2="100%" y2="0%"><stop offset="14.444444444444446%" stop-color="#00093a" stop-opacity="1"></stop><stop offset="85.55555555555554%" stop-color="#000000" stop-opacity="1"></stop></linearGradient></defs><defs><linearGradient id="grad2_0" x1="0%" y1="100%" x2="56.3%" y2="0%"><stop offset="14.444444444444446%" stop-color="#3b4076" stop-opacity="1"></stop><stop offset="85.55555555555554%" stop-color="#3b4076" stop-opacity="1"></stop></linearGradient></defs><defs><linearGradient id="grad2_1" x1="0%" y1="100%" x2="56.3%" y2="0%"><stop offset="14.444444444444446%" stop-color="#30376b" stop-opacity="1"></stop><stop offset="85.55555555555554%" stop-color="#3b4076" stop-opacity="1"></stop></linearGradient></defs><defs><linearGradient id="grad2_2" x1="0%" y1="100%" x2="56.3%" y2="0%"><stop offset="14.444444444444446%" stop-color="#30376b" stop-opacity="1"></stop><stop offset="85.55555555555554%" stop-color="#262e61" stop-opacity="1"></stop></linearGradient></defs><defs><linearGradient id="grad2_3" x1="0%" y1="100%" x2="56.3%" y2="0%"><stop offset="14.444444444444446%" stop-color="#1b2557" stop-opacity="1"></stop><stop offset="85.55555555555554%" stop-color="#262e61" stop-opacity="1"></stop></linearGradient></defs><defs><linearGradient id="grad2_4" x1="0%" y1="100%" x2="56.3%" y2="0%"><stop offset="14.444444444444446%" stop-color="#1b2557" stop-opacity="1"></stop><stop offset="85.55555555555554%" stop-color="#0e1d4d" stop-opacity="1"></stop></linearGradient></defs><defs><linearGradient id="grad2_5" x1="0%" y1="100%" x2="56.3%" y2="0%"><stop offset="14.444444444444446%" stop-color="#001443" stop-opacity="1"></stop><stop offset="85.55555555555554%" stop-color="#0e1d4d" stop-opacity="1"></stop></linearGradient></defs><defs><linearGradient id="grad2_6" x1="0%" y1="100%" x2="56.3%" y2="0%"><stop offset="14.444444444444446%" stop-color="#001443" stop-opacity="1"></stop><stop offset="85.55555555555554%" stop-color="#00093a" stop-opacity="1"></stop></linearGradient></defs><defs><linearGradient id="grad2_7" x1="0%" y1="100%" x2="56.3%" y2="0%"><stop offset="14.444444444444446%" stop-color="#000000" stop-opacity="1"></stop><stop offset="85.55555555555554%" stop-color="#00093a" stop-opacity="1"></stop></linearGradient></defs><g transform="translate(960, 540)"><path d="M-378 0C-338.8 -25.3 -299.5 -50.6 -281.1 -75.3C-262.6 -100.1 -265 -124.3 -261.5 -151C-258.1 -177.7 -248.8 -207 -235.5 -235.5C-222.1 -263.9 -204.8 -291.5 -181.5 -314.4C-158.2 -337.2 -129.1 -355.3 -97.8 -365.1C-66.6 -374.9 -33.3 -376.5 0 -378L0 0Z" fill="#000135"></path><path d="M-330.7 0C-296.4 -22.1 -262.1 -44.3 -245.9 -65.9C-229.8 -87.6 -231.9 -108.7 -228.8 -132.1C-225.8 -155.5 -217.7 -181.1 -206 -206C-194.4 -230.9 -179.2 -255.1 -158.8 -275.1C-138.5 -295.1 -112.9 -310.9 -85.6 -319.5C-58.3 -328.1 -29.1 -329.4 0 -330.7L0 0Z" fill="#00103e"></path><path d="M-283.5 0C-254.1 -19 -224.6 -37.9 -210.8 -56.5C-197 -75 -198.8 -93.2 -196.2 -113.3C-193.6 -133.3 -186.6 -155.3 -176.6 -176.6C-166.6 -197.9 -153.6 -218.6 -136.1 -235.8C-118.7 -252.9 -96.8 -266.5 -73.4 -273.8C-50 -281.2 -25 -282.3 0 -283.5L0 0Z" fill="#071848"></path><path d="M-236.2 0C-211.7 -15.8 -187.2 -31.6 -175.7 -47.1C-164.2 -62.5 -165.6 -77.7 -163.5 -94.4C-161.3 -111.1 -155.5 -129.4 -147.2 -147.2C-138.8 -164.9 -128 -182.2 -113.4 -196.5C-98.9 -210.8 -80.7 -222.1 -61.1 -228.2C-41.6 -234.3 -20.8 -235.3 0 -236.2L0 0Z" fill="#152152"></path><path d="M-189 0C-169.4 -12.6 -149.8 -25.3 -140.5 -37.7C-131.3 -50 -132.5 -62.1 -130.8 -75.5C-129 -88.9 -124.4 -103.5 -117.7 -117.7C-111.1 -132 -102.4 -145.8 -90.8 -157.2C-79.1 -168.6 -64.5 -177.7 -48.9 -182.6C-33.3 -187.5 -16.7 -188.2 0 -189L0 0Z" fill="#20295c"></path><path d="M-141.7 0C-127 -9.5 -112.3 -19 -105.4 -28.2C-98.5 -37.5 -99.4 -46.6 -98.1 -56.6C-96.8 -66.7 -93.3 -77.6 -88.3 -88.3C-83.3 -99 -76.8 -109.3 -68.1 -117.9C-59.3 -126.5 -48.4 -133.2 -36.7 -136.9C-25 -140.6 -12.5 -141.2 0 -141.7L0 0Z" fill="#2b3266"></path><path d="M-94.5 0C-84.7 -6.3 -74.9 -12.6 -70.3 -18.8C-65.7 -25 -66.3 -31.1 -65.4 -37.8C-64.5 -44.4 -62.2 -51.8 -58.9 -58.9C-55.5 -66 -51.2 -72.9 -45.4 -78.6C-39.6 -84.3 -32.3 -88.8 -24.5 -91.3C-16.7 -93.7 -8.3 -94.1 0 -94.5L0 0Z" fill="#363b71"></path><path d="M-47.2 0C-42.3 -3.2 -37.4 -6.3 -35.1 -9.4C-32.8 -12.5 -33.1 -15.5 -32.7 -18.9C-32.3 -22.2 -31.1 -25.9 -29.4 -29.4C-27.8 -33 -25.6 -36.4 -22.7 -39.3C-19.8 -42.2 -16.1 -44.4 -12.2 -45.6C-8.3 -46.9 -4.2 -47.1 0 -47.2L0 0Z" fill="#3b4076"></path></g><g transform="translate(0, 0)"><path d="M378 0C373.7 32.8 369.5 65.5 357.4 95.8C345.3 126 325.5 153.8 300.5 173.5C275.5 193.2 245.5 205 224.2 224.2C202.9 243.3 190.3 270 171.5 297C152.7 324.1 127.5 351.6 97.8 365.1C68.2 378.7 34.1 378.3 0 378L0 0Z" fill="#000135"></path><path d="M330.8 0C327 28.7 323.3 57.3 312.7 83.8C302.2 110.3 284.8 134.5 262.9 151.8C241.1 169.1 214.8 179.3 196.1 196.1C177.5 212.9 166.6 236.2 150.1 259.9C133.6 283.6 111.5 307.6 85.6 319.5C59.7 331.3 29.8 331 0 330.8L0 0Z" fill="#00103e"></path><path d="M283.5 0C280.3 24.6 277.1 49.1 268 71.8C259 94.5 244.1 115.3 225.4 130.1C206.7 144.9 184.1 153.7 168.1 168.1C152.1 182.5 142.8 202.5 128.6 222.8C114.5 243.1 95.6 263.7 73.4 273.8C51.1 284 25.6 283.8 0 283.5L0 0Z" fill="#071848"></path><path d="M236.3 0C233.6 20.5 230.9 40.9 223.4 59.9C215.8 78.8 203.4 96.1 187.8 108.4C172.2 120.8 153.4 128.1 140.1 140.1C126.8 152.1 119 168.7 107.2 185.7C95.4 202.6 79.7 219.7 61.1 228.2C42.6 236.7 21.3 236.5 0 236.3L0 0Z" fill="#152152"></path><path d="M189 0C186.9 16.4 184.7 32.8 178.7 47.9C172.7 63 162.7 76.9 150.3 86.7C137.8 96.6 122.7 102.5 112.1 112.1C101.4 121.7 95.2 135 85.8 148.5C76.3 162.1 63.7 175.8 48.9 182.6C34.1 189.3 17 189.2 0 189L0 0Z" fill="#20295c"></path><path d="M141.8 0C140.1 12.3 138.5 24.6 134 35.9C129.5 47.3 122.1 57.7 112.7 65.1C103.3 72.5 92 76.9 84.1 84.1C76.1 91.3 71.4 101.2 64.3 111.4C57.2 121.5 47.8 131.8 36.7 136.9C25.6 142 12.8 141.9 0 141.8L0 0Z" fill="#2b3266"></path><path d="M94.5 0C93.4 8.2 92.4 16.4 89.3 23.9C86.3 31.5 81.4 38.4 75.1 43.4C68.9 48.3 61.4 51.2 56 56C50.7 60.8 47.6 67.5 42.9 74.3C38.2 81 31.9 87.9 24.5 91.3C17 94.7 8.5 94.6 0 94.5L0 0Z" fill="#363b71"></path><path d="M47.3 0C46.7 4.1 46.2 8.2 44.7 12C43.2 15.8 40.7 19.2 37.6 21.7C34.4 24.2 30.7 25.6 28 28C25.4 30.4 23.8 33.7 21.4 37.1C19.1 40.5 15.9 43.9 12.2 45.6C8.5 47.3 4.3 47.3 0 47.3L0 0Z" fill="#3b4076"></path></g></svg>